<svg id="visual" viewBox="0 0 900 600" width="900" height="600" xmlns="http://www.w3.org/2000/svg" xmlns:xlink="http://www.w3.org/1999/xlink" version="1.1"><rect x="0" y="0" width="900" height="600" fill="#FFFFFF00"></rect><g transform="translate(880.6706885136376 -13.401824224321572)"><path d="M99.8 -125C133.7 -112.7 168.6 -89.4 175.4 -59.2C182.3 -28.9 161 8.2 149.2 49.6C137.3 91 134.8 136.5 111.5 154.1C88.2 171.7 44.1 161.3 4.6 155C-34.9 148.7 -69.8 146.3 -92 128.4C-114.3 110.5 -124 77 -130.9 45.1C-137.7 13.2 -141.6 -17 -133.7 -44.1C-125.8 -71.2 -106.1 -95 -81.9 -110.5C-57.6 -126 -28.8 -133 2.1 -135.8C32.9 -138.6 65.8 -137.3 99.8 -125" fill="#BB004B"></path></g></svg>