<svg id="visual" viewBox="0 0 900 600" width="900" height="600" xmlns="http://www.w3.org/2000/svg" xmlns:xlink="http://www.w3.org/1999/xlink" version="1.1"><rect x="0" y="0" width="900" height="600" fill="#140021"></rect><path d="M281 600L466 600L466 557L422 557L422 514L358 514L358 471L437 471L437 429L333 429L333 386L392 386L392 343L277 343L277 300L464 300L464 257L196 257L196 214L329 214L329 171L497 171L497 129L203 129L203 86L214 86L214 43L460 43L460 0L900 0L900 43L900 43L900 86L900 86L900 129L900 129L900 171L900 171L900 214L900 214L900 257L900 257L900 300L900 300L900 343L900 343L900 386L900 386L900 429L900 429L900 471L900 471L900 514L900 514L900 557L900 557L900 600L900 600Z" fill="#9900ff"></path><path d="M517 600L636 600L636 557L442 557L442 514L537 514L537 471L454 471L454 429L574 429L574 386L644 386L644 343L483 343L483 300L498 300L498 257L637 257L637 214L495 214L495 171L604 171L604 129L583 129L583 86L576 86L576 43L396 43L396 0L900 0L900 43L900 43L900 86L900 86L900 129L900 129L900 171L900 171L900 214L900 214L900 257L900 257L900 300L900 300L900 343L900 343L900 386L900 386L900 429L900 429L900 471L900 471L900 514L900 514L900 557L900 557L900 600L900 600Z" fill="#7700c6"></path><path d="M682 600L781 600L781 557L708 557L708 514L778 514L778 471L732 471L732 429L580 429L580 386L583 386L583 343L611 343L611 300L767 300L767 257L590 257L590 214L746 214L746 171L713 171L713 129L775 129L775 86L734 86L734 43L677 43L677 0L900 0L900 43L900 43L900 86L900 86L900 129L900 129L900 171L900 171L900 214L900 214L900 257L900 257L900 300L900 300L900 343L900 343L900 386L900 386L900 429L900 429L900 471L900 471L900 514L900 514L900 557L900 557L900 600L900 600Z" fill="#560090"></path></svg>