<svg id="visual" viewBox="0 0 900 600" width="900" height="600" xmlns="http://www.w3.org/2000/svg" xmlns:xlink="http://www.w3.org/1999/xlink" version="1.1"><rect x="0" y="0" width="900" height="600" fill="#140021"></rect><path d="M407 600L213 600L213 557L427 557L427 514L356 514L356 471L408 471L408 429L507 429L507 386L327 386L327 343L259 343L259 300L212 300L212 257L303 257L303 214L455 214L455 171L173 171L173 129L423 129L423 86L491 86L491 43L207 43L207 0L900 0L900 43L900 43L900 86L900 86L900 129L900 129L900 171L900 171L900 214L900 214L900 257L900 257L900 300L900 300L900 343L900 343L900 386L900 386L900 429L900 429L900 471L900 471L900 514L900 514L900 557L900 557L900 600L900 600Z" fill="#9900ff"></path><path d="M629 600L455 600L455 557L641 557L641 514L447 514L447 471L591 471L591 429L524 429L524 386L524 386L524 343L449 343L449 300L611 300L611 257L452 257L452 214L417 214L417 171L562 171L562 129L458 129L458 86L464 86L464 43L568 43L568 0L900 0L900 43L900 43L900 86L900 86L900 129L900 129L900 171L900 171L900 214L900 214L900 257L900 257L900 300L900 300L900 343L900 343L900 386L900 386L900 429L900 429L900 471L900 471L900 514L900 514L900 557L900 557L900 600L900 600Z" fill="#7700c6"></path><path d="M663 600L624 600L624 557L680 557L680 514L726 514L726 471L590 471L590 429L675 429L675 386L678 386L678 343L785 343L785 300L755 300L755 257L588 257L588 214L736 214L736 171L769 171L769 129L694 129L694 86L743 86L743 43L702 43L702 0L900 0L900 43L900 43L900 86L900 86L900 129L900 129L900 171L900 171L900 214L900 214L900 257L900 257L900 300L900 300L900 343L900 343L900 386L900 386L900 429L900 429L900 471L900 471L900 514L900 514L900 557L900 557L900 600L900 600Z" fill="#560090"></path></svg>